<svg width="196" height="372" viewBox="0 0 196 372" fill="none" xmlns="http://www.w3.org/2000/svg">
<rect x="29" y="44" width="138" height="292" rx="16" fill="#D9D9D9"/>
<rect x="45" y="82" width="39" height="16" fill="#CEB3B3"/>
<rect width="17" height="4" transform="matrix(1 0 0 -1 139 59)" fill="#CEB3B3"/>
<rect width="17" height="4" transform="matrix(1 0 0 -1 139 71)" fill="#CEB3B3"/>
<rect width="17" height="4" transform="matrix(1 0 0 -1 139 65)" fill="#CEB3B3"/>
<rect x="92" y="82" width="39" height="16" fill="#CEB3B3"/>
<rect x="139" y="82" width="14" height="16" fill="#CEB3B3"/>
<rect x="45" y="108" width="28" height="16" fill="#CEB3B3"/>
<rect x="78" y="108" width="39" height="16" fill="#CEB3B3"/>
<g filter="url(#filter0_d_1_2)">
<path d="M74 150.833C74 148.716 75.8655 147 78.1667 147H119.833C122.135 147 124 148.716 124 150.833V166.167C124 168.284 122.135 170 119.833 170H78.1667C75.8655 170 74 168.284 74 166.167V150.833Z" fill="#F0AAAA"/>
</g>
<rect x="121" y="108" width="32" height="16" fill="#CEB3B3"/>
<rect x="40" y="270" width="50" height="44" rx="6" fill="#C0D4E4"/>
<path d="M68.8516 318.973L81 301L90 314.314V316C90 319.314 87.3137 322 84 322H46C42.6863 322 40 319.314 40 316V312.619L52.5 292L68.8516 318.973Z" fill="#A37272"/>
<rect x="106" y="270" width="50" height="44" rx="6" fill="#C0D4E4"/>
<path d="M134.852 318.973L147 301L156 314.314V316C156 319.314 153.314 322 150 322H112C108.686 322 106 319.314 106 316V312.619L118.5 292L134.852 318.973Z" fill="#A37272"/>
<rect x="106" y="204" width="50" height="44" rx="6" fill="#C0D4E4"/>
<path d="M134.852 252.973L147 235L156 248.314V250C156 253.314 153.314 256 150 256H112C108.686 256 106 253.314 106 250V246.619L118.5 226L134.852 252.973Z" fill="#A37272"/>
<rect x="40" y="204" width="50" height="44" rx="6" fill="#C0D4E4"/>
<path d="M68.8516 252.973L81 235L90 248.314V250C90 253.314 87.3137 256 84 256H46C42.6863 256 40 253.314 40 250V246.619L52.5 226L68.8516 252.973Z" fill="#A37272"/>
<circle cx="48.5" cy="63.5" r="8.5" fill="#BFBB9A"/>
<path d="M83.2 259L73 276H79.8V286.2L90 269.2H83.2V259Z" fill="#61ED2F"/>
<path d="M83.2 186L73 203H79.8V213.2L90 196.2H83.2V186Z" fill="#61ED2F"/>
<path d="M147.2 186L137 203H143.8V213.2L154 196.2H147.2V186Z" fill="#61ED2F"/>
<path d="M147.2 259L137 276H143.8V286.2L154 269.2H147.2V259Z" fill="#61ED2F"/>
<path d="M99.575 149L92 161.625H97.05V169.2L104.625 156.575H99.575V149Z" fill="#61ED2F"/>
<defs>
<filter id="filter0_d_1_2" x="74" y="147" width="54.9" height="31.9" filterUnits="userSpaceOnUse" color-interpolation-filters="sRGB">
<feFlood flood-opacity="0" result="BackgroundImageFix"/>
<feColorMatrix in="SourceAlpha" type="matrix" values="0 0 0 0 0 0 0 0 0 0 0 0 0 0 0 0 0 0 127 0" result="hardAlpha"/>
<feOffset dx="3" dy="7"/>
<feGaussianBlur stdDeviation="0.95"/>
<feComposite in2="hardAlpha" operator="out"/>
<feColorMatrix type="matrix" values="0 0 0 0 0 0 0 0 0 0 0 0 0 0 0 0 0 0 0.25 0"/>
<feBlend mode="normal" in2="BackgroundImageFix" result="effect1_dropShadow_1_2"/>
<feBlend mode="normal" in="SourceGraphic" in2="effect1_dropShadow_1_2" result="shape"/>
</filter>
</defs>
</svg>
